<svg width="100" height="100" viewBox="0 0 100 100" fill="none" xmlns="http://www.w3.org/2000/svg">
<g clip-path="url(#clip0_1835_7)">
<rect width="100" height="100" fill="#252525"/>
<path d="M69.864 68.72C69.864 71.408 69.384 73.904 68.424 76.208C67.528 78.448 66.152 80.432 64.296 82.16C62.504 83.824 60.232 85.104 57.48 86C54.728 86.96 51.56 87.44 47.976 87.44C43.816 87.44 40.328 86.864 37.512 85.712C34.76 84.496 32.552 82.992 30.888 81.2C29.224 79.408 28.04 77.456 27.336 75.344C26.632 73.168 26.28 71.12 26.28 69.2C26.28 67.344 26.568 65.584 27.144 63.92C27.784 62.192 28.584 60.592 29.544 59.12C30.568 57.648 31.72 56.336 33 55.184C34.344 53.968 35.752 52.912 37.224 52.016C30.952 48.432 27.816 43.152 27.816 36.176C27.816 33.744 28.296 31.44 29.256 29.264C30.216 27.024 31.56 25.072 33.288 23.408C35.08 21.744 37.224 20.432 39.72 19.472C42.216 18.448 45 17.936 48.072 17.936C51.656 17.936 54.728 18.48 57.288 19.568C59.848 20.656 61.928 22.064 63.528 23.792C65.192 25.456 66.376 27.312 67.08 29.36C67.848 31.408 68.232 33.392 68.232 35.312C68.232 37.168 67.944 38.928 67.368 40.592C66.856 42.192 66.12 43.696 65.16 45.104C64.264 46.512 63.208 47.76 61.992 48.848C60.84 49.936 59.624 50.896 58.344 51.728C65.896 55.312 69.736 60.976 69.864 68.72ZM35.304 69.296C35.304 70.448 35.496 71.664 35.88 72.944C36.328 74.16 37.064 75.312 38.088 76.4C39.112 77.424 40.424 78.288 42.024 78.992C43.624 79.696 45.64 80.048 48.072 80.048C50.248 80.048 52.136 79.728 53.736 79.088C55.4 78.448 56.744 77.648 57.768 76.688C58.792 75.664 59.56 74.512 60.072 73.232C60.584 71.952 60.84 70.64 60.84 69.296C60.84 67.248 60.456 65.456 59.688 63.92C58.92 62.384 57.8 61.04 56.328 59.888C54.92 58.736 53.192 57.776 51.144 57.008C49.16 56.176 46.888 55.472 44.328 54.896C41.448 56.496 39.208 58.48 37.608 60.848C36.072 63.216 35.304 66.032 35.304 69.296ZM59.304 35.216C59.304 34.256 59.08 33.2 58.632 32.048C58.248 30.896 57.608 29.84 56.712 28.88C55.816 27.856 54.664 27.024 53.256 26.384C51.848 25.68 50.12 25.328 48.072 25.328C46.024 25.328 44.264 25.648 42.792 26.288C41.384 26.928 40.232 27.76 39.336 28.784C38.44 29.744 37.768 30.832 37.32 32.048C36.936 33.2 36.744 34.352 36.744 35.504C36.744 36.912 37 38.32 37.512 39.728C38.024 41.136 38.824 42.448 39.912 43.664C41 44.88 42.408 45.968 44.136 46.928C45.928 47.888 48.04 48.656 50.472 49.232C53.16 47.632 55.304 45.776 56.904 43.664C58.504 41.488 59.304 38.672 59.304 35.216Z" fill="#FFFBFA"/>
<path d="M95.9235 78.416C95.9235 81.296 94.9955 83.504 93.1395 85.04C91.3475 86.512 89.2995 87.248 86.9955 87.248C84.6915 87.248 82.6115 86.512 80.7555 85.04C78.9635 83.504 78.0675 81.296 78.0675 78.416C78.0675 75.536 78.9635 73.36 80.7555 71.888C82.6115 70.352 84.6915 69.584 86.9955 69.584C89.2995 69.584 91.3475 70.352 93.1395 71.888C94.9955 73.36 95.9235 75.536 95.9235 78.416Z" fill="#A3333D"/>
</g>
<defs>
<clipPath id="clip0_1835_7">
<rect width="100" height="100" fill="white"/>
</clipPath>
</defs>
</svg>
