<svg width="408" height="252" viewBox="0 0 408 252" fill="none" xmlns="http://www.w3.org/2000/svg">
<g clip-path="url(#clip0_1834_4)">
<rect width="408" height="252" fill="#252525"/>
<path d="M75.35 155C75.35 159.2 74.6 163.1 73.1 166.7C71.7 170.2 69.55 173.3 66.65 176C63.85 178.6 60.3 180.6 56 182C51.7 183.5 46.75 184.25 41.15 184.25C34.65 184.25 29.2 183.35 24.8 181.55C20.5 179.65 17.05 177.3 14.45 174.5C11.85 171.7 10 168.65 8.9 165.35C7.8 161.95 7.25 158.75 7.25 155.75C7.25 152.85 7.7 150.1 8.6 147.5C9.6 144.8 10.85 142.3 12.35 140C13.95 137.7 15.75 135.65 17.75 133.85C19.85 131.95 22.05 130.3 24.35 128.9C14.55 123.3 9.65 115.05 9.65 104.15C9.65 100.35 10.4 96.75 11.9 93.35C13.4 89.85 15.5 86.8 18.2 84.2C21 81.6 24.35 79.55 28.25 78.05C32.15 76.45 36.5 75.65 41.3 75.65C46.9 75.65 51.7 76.5 55.7 78.2C59.7 79.9 62.95 82.1 65.45 84.8C68.05 87.4 69.9 90.3 71 93.5C72.2 96.7 72.8 99.8 72.8 102.8C72.8 105.7 72.35 108.45 71.45 111.05C70.65 113.55 69.5 115.9 68 118.1C66.6 120.3 64.95 122.25 63.05 123.95C61.25 125.65 59.35 127.15 57.35 128.45C69.15 134.05 75.15 142.9 75.35 155ZM21.35 155.9C21.35 157.7 21.65 159.6 22.25 161.6C22.95 163.5 24.1 165.3 25.7 167C27.3 168.6 29.35 169.95 31.85 171.05C34.35 172.15 37.5 172.7 41.3 172.7C44.7 172.7 47.65 172.2 50.15 171.2C52.75 170.2 54.85 168.95 56.45 167.45C58.05 165.85 59.25 164.05 60.05 162.05C60.85 160.05 61.25 158 61.25 155.9C61.25 152.7 60.65 149.9 59.45 147.5C58.25 145.1 56.5 143 54.2 141.2C52 139.4 49.3 137.9 46.1 136.7C43 135.4 39.45 134.3 35.45 133.4C30.95 135.9 27.45 139 24.95 142.7C22.55 146.4 21.35 150.8 21.35 155.9ZM58.85 102.65C58.85 101.15 58.5 99.5 57.8 97.7C57.2 95.9 56.2 94.25 54.8 92.75C53.4 91.15 51.6 89.85 49.4 88.85C47.2 87.75 44.5 87.2 41.3 87.2C38.1 87.2 35.35 87.7 33.05 88.7C30.85 89.7 29.05 91 27.65 92.6C26.25 94.1 25.2 95.8 24.5 97.7C23.9 99.5 23.6 101.3 23.6 103.1C23.6 105.3 24 107.5 24.8 109.7C25.6 111.9 26.85 113.95 28.55 115.85C30.25 117.75 32.45 119.45 35.15 120.95C37.95 122.45 41.25 123.65 45.05 124.55C49.25 122.05 52.6 119.15 55.1 115.85C57.6 112.45 58.85 108.05 58.85 102.65ZM154.618 169.4V182H92.068V78.05H106.618V169.4H154.618ZM190.851 171.95C194.151 171.95 197.051 171.9 199.551 171.8C202.151 171.6 204.301 171.3 206.001 170.9V147.65C205.001 147.15 203.351 146.75 201.051 146.45C198.851 146.05 196.151 145.85 192.951 145.85C190.851 145.85 188.601 146 186.201 146.3C183.901 146.6 181.751 147.25 179.751 148.25C177.851 149.15 176.251 150.45 174.951 152.15C173.651 153.75 173.001 155.9 173.001 158.6C173.001 163.6 174.601 167.1 177.801 169.1C181.001 171 185.351 171.95 190.851 171.95ZM189.651 102.05C195.251 102.05 199.951 102.8 203.751 104.3C207.651 105.7 210.751 107.75 213.051 110.45C215.451 113.05 217.151 116.2 218.151 119.9C219.151 123.5 219.651 127.5 219.651 131.9V180.65C218.451 180.85 216.751 181.15 214.551 181.55C212.451 181.85 210.051 182.15 207.351 182.45C204.651 182.75 201.701 183 198.501 183.2C195.401 183.5 192.301 183.65 189.201 183.65C184.801 183.65 180.751 183.2 177.051 182.3C173.351 181.4 170.151 180 167.451 178.1C164.751 176.1 162.651 173.5 161.151 170.3C159.651 167.1 158.901 163.25 158.901 158.75C158.901 154.45 159.751 150.75 161.451 147.65C163.251 144.55 165.651 142.05 168.651 140.15C171.651 138.25 175.151 136.85 179.151 135.95C183.151 135.05 187.351 134.6 191.751 134.6C193.151 134.6 194.601 134.7 196.101 134.9C197.601 135 199.001 135.2 200.301 135.5C201.701 135.7 202.901 135.9 203.901 136.1C204.901 136.3 205.601 136.45 206.001 136.55V132.65C206.001 130.35 205.751 128.1 205.251 125.9C204.751 123.6 203.851 121.6 202.551 119.9C201.251 118.1 199.451 116.7 197.151 115.7C194.951 114.6 192.051 114.05 188.451 114.05C183.851 114.05 179.801 114.4 176.301 115.1C172.901 115.7 170.351 116.35 168.651 117.05L167.001 105.5C168.801 104.7 171.801 103.95 176.001 103.25C180.201 102.45 184.751 102.05 189.651 102.05ZM252.27 107.45C253.97 106.35 256.52 105.2 259.92 104C263.42 102.8 267.42 102.2 271.92 102.2C277.52 102.2 282.47 103.2 286.77 105.2C291.17 107.2 294.87 110 297.87 113.6C300.87 117.2 303.12 121.5 304.62 126.5C306.22 131.5 307.02 137 307.02 143C307.02 149.3 306.07 155 304.17 160.1C302.37 165.1 299.77 169.35 296.37 172.85C292.97 176.35 288.87 179.05 284.07 180.95C279.27 182.85 273.87 183.8 267.87 183.8C261.37 183.8 255.62 183.35 250.62 182.45C245.62 181.55 241.52 180.65 238.32 179.75V68L252.27 65.6V107.45ZM252.27 169.85C253.67 170.25 255.62 170.65 258.12 171.05C260.72 171.35 263.92 171.5 267.72 171.5C275.22 171.5 281.22 169.05 285.72 164.15C290.22 159.15 292.47 152.1 292.47 143C292.47 139 292.07 135.25 291.27 131.75C290.47 128.25 289.17 125.25 287.37 122.75C285.57 120.15 283.22 118.15 280.32 116.75C277.52 115.25 274.12 114.5 270.12 114.5C266.32 114.5 262.82 115.15 259.62 116.45C256.42 117.75 253.97 119.1 252.27 120.5V169.85ZM340.3 171.95C346 171.95 350.2 171.2 352.9 169.7C355.7 168.2 357.1 165.8 357.1 162.5C357.1 159.1 355.75 156.4 353.05 154.4C350.35 152.4 345.9 150.15 339.7 147.65C336.7 146.45 333.8 145.25 331 144.05C328.3 142.75 325.95 141.25 323.95 139.55C321.95 137.85 320.35 135.8 319.15 133.4C317.95 131 317.35 128.05 317.35 124.55C317.35 117.65 319.9 112.2 325 108.2C330.1 104.1 337.05 102.05 345.85 102.05C348.05 102.05 350.25 102.2 352.45 102.5C354.65 102.7 356.7 103 358.6 103.4C360.5 103.7 362.15 104.05 363.55 104.45C365.05 104.85 366.2 105.2 367 105.5L364.45 117.5C362.95 116.7 360.6 115.9 357.4 115.1C354.2 114.2 350.35 113.75 345.85 113.75C341.95 113.75 338.55 114.55 335.65 116.15C332.75 117.65 331.3 120.05 331.3 123.35C331.3 125.05 331.6 126.55 332.2 127.85C332.9 129.15 333.9 130.35 335.2 131.45C336.6 132.45 338.3 133.4 340.3 134.3C342.3 135.2 344.7 136.15 347.5 137.15C351.2 138.55 354.5 139.95 357.4 141.35C360.3 142.65 362.75 144.2 364.75 146C366.85 147.8 368.45 150 369.55 152.6C370.65 155.1 371.2 158.2 371.2 161.9C371.2 169.1 368.5 174.55 363.1 178.25C357.8 181.95 350.2 183.8 340.3 183.8C333.4 183.8 328 183.2 324.1 182C320.2 180.9 317.55 180.05 316.15 179.45L318.7 167.45C320.3 168.05 322.85 168.95 326.35 170.15C329.85 171.35 334.5 171.95 340.3 171.95Z" fill="#FFFBFA"/>
<path d="M401.094 173.9C401.094 176.6 400.194 178.95 398.394 180.95C396.594 182.95 394.144 183.95 391.044 183.95C387.944 183.95 385.494 182.95 383.694 180.95C381.894 178.95 380.994 176.6 380.994 173.9C380.994 171.2 381.894 168.85 383.694 166.85C385.494 164.85 387.944 163.85 391.044 163.85C394.144 163.85 396.594 164.85 398.394 166.85C400.194 168.85 401.094 171.2 401.094 173.9Z" fill="#A3333D"/>
</g>
<defs>
<clipPath id="clip0_1834_4">
<rect width="408" height="252" fill="white"/>
</clipPath>
</defs>
</svg>
